<svg xmlns="http://www.w3.org/2000/svg" width="158.437" height="22.758" viewBox="0 0 158.437 22.758">
  <g id="listeo-editor" transform="translate(-81.623 -45.374)">
    <path id="Path_1" data-name="Path 1" d="M2.13-21.9H4.77V-4.05a1.915,1.915,0,0,0,.465,1.365,1.7,1.7,0,0,0,1.3.5,3.5,3.5,0,0,0,.78-.1,6.374,6.374,0,0,0,.84-.255L8.58-.42A8.6,8.6,0,0,1,7.02.03,8.225,8.225,0,0,1,5.43.21,3.3,3.3,0,0,1,3.015-.66,3.253,3.253,0,0,1,2.13-3.09ZM10.62,0V-15.66h2.64V0Zm0-18.6v-3.3h2.64v3.3ZM23.1.3a12.148,12.148,0,0,1-3.72-.585,9.169,9.169,0,0,1-3.15-1.7l1.14-1.77a11.112,11.112,0,0,0,2.76,1.575,8.114,8.114,0,0,0,2.91.525,4.806,4.806,0,0,0,2.715-.675,2.164,2.164,0,0,0,1-1.9,1.717,1.717,0,0,0-.27-.975,2.272,2.272,0,0,0-.81-.7,6.618,6.618,0,0,0-1.38-.54q-.84-.24-1.95-.51-1.41-.36-2.43-.69a6.583,6.583,0,0,1-1.68-.78,2.731,2.731,0,0,1-.96-1.08,3.617,3.617,0,0,1-.3-1.56,4.538,4.538,0,0,1,.465-2.085,4.4,4.4,0,0,1,1.275-1.53,5.738,5.738,0,0,1,1.905-.93,8.485,8.485,0,0,1,2.355-.315,9.378,9.378,0,0,1,3.3.57,8.117,8.117,0,0,1,2.58,1.5l-1.2,1.59a6.738,6.738,0,0,0-2.22-1.3,7.5,7.5,0,0,0-2.52-.435,4.6,4.6,0,0,0-2.445.615,2.131,2.131,0,0,0-1,1.965,1.873,1.873,0,0,0,.2.9,1.7,1.7,0,0,0,.645.63,5.086,5.086,0,0,0,1.155.48q.7.21,1.695.45,1.56.36,2.715.735a7.815,7.815,0,0,1,1.92.885,3.413,3.413,0,0,1,1.14,1.2,3.476,3.476,0,0,1,.375,1.68A4.159,4.159,0,0,1,27.63-.99,7.255,7.255,0,0,1,23.1.3ZM40.56-.78q-.24.12-.63.285t-.885.33a7.744,7.744,0,0,1-1.08.27,6.867,6.867,0,0,1-1.215.1,4.007,4.007,0,0,1-2.49-.8,2.9,2.9,0,0,1-1.05-2.47V-13.59H31.08v-2.07h2.13v-5.22h2.64v5.22h3.51v2.07H35.85v9.72a1.637,1.637,0,0,0,.57,1.26,1.919,1.919,0,0,0,1.2.39,3.844,3.844,0,0,0,1.425-.255,6.2,6.2,0,0,0,.885-.4ZM49.98.3a7.977,7.977,0,0,1-3.24-.645A7.662,7.662,0,0,1,44.22-2.1a8,8,0,0,1-1.635-2.6A8.476,8.476,0,0,1,42-7.83a8.36,8.36,0,0,1,.585-3.12,7.912,7.912,0,0,1,1.65-2.58,7.832,7.832,0,0,1,2.535-1.755,7.977,7.977,0,0,1,3.24-.645,7.717,7.717,0,0,1,3.225.66,7.663,7.663,0,0,1,2.475,1.755,7.753,7.753,0,0,1,1.575,2.55A8.39,8.39,0,0,1,57.84-7.95q0,.33-.015.6a3.161,3.161,0,0,1-.045.42H44.79a6.073,6.073,0,0,0,.54,2.13A5.48,5.48,0,0,0,46.5-3.15a5.41,5.41,0,0,0,1.635,1.08,4.884,4.884,0,0,0,1.935.39,5.16,5.16,0,0,0,1.41-.195A6.12,6.12,0,0,0,52.77-2.4a4.476,4.476,0,0,0,1.065-.81,3.306,3.306,0,0,0,.705-1.08l2.28.63a5.757,5.757,0,0,1-1.065,1.59,7.063,7.063,0,0,1-1.56,1.245A8.058,8.058,0,0,1,52.23,0a8.368,8.368,0,0,1-2.25.3Zm5.37-9.18a5.643,5.643,0,0,0-.555-2.055,5.494,5.494,0,0,0-1.17-1.6A5.229,5.229,0,0,0,51.99-13.57a5.244,5.244,0,0,0-1.98-.375,5.244,5.244,0,0,0-1.98.375A5.094,5.094,0,0,0,46.4-12.52a5.314,5.314,0,0,0-1.14,1.6,5.9,5.9,0,0,0-.525,2.04ZM67.77.3a7.717,7.717,0,0,1-3.225-.66,7.723,7.723,0,0,1-2.49-1.77,7.963,7.963,0,0,1-1.6-2.58,8.472,8.472,0,0,1-.57-3.09,8.36,8.36,0,0,1,.585-3.12,8.176,8.176,0,0,1,1.62-2.58,7.723,7.723,0,0,1,2.49-1.77,7.644,7.644,0,0,1,3.195-.66,7.746,7.746,0,0,1,3.21.66,7.68,7.68,0,0,1,2.5,1.77,8.176,8.176,0,0,1,1.62,2.58A8.36,8.36,0,0,1,75.69-7.8a8.472,8.472,0,0,1-.57,3.09A7.835,7.835,0,0,1,73.5-2.13,7.9,7.9,0,0,1,71-.36,7.717,7.717,0,0,1,67.77.3ZM62.58-7.77a6.282,6.282,0,0,0,.405,2.28A5.824,5.824,0,0,0,64.1-3.66a5.241,5.241,0,0,0,1.65,1.23,4.65,4.65,0,0,0,2.025.45A4.65,4.65,0,0,0,69.8-2.43,5.309,5.309,0,0,0,71.46-3.675a5.823,5.823,0,0,0,1.125-1.86,6.4,6.4,0,0,0,.4-2.3,6.318,6.318,0,0,0-.4-2.265,5.823,5.823,0,0,0-1.125-1.86,5.309,5.309,0,0,0-1.665-1.24,4.65,4.65,0,0,0-2.025-.45,4.525,4.525,0,0,0-2.025.465,5.334,5.334,0,0,0-1.65,1.26,5.972,5.972,0,0,0-1.11,1.86,6.4,6.4,0,0,0-.4,2.3Z" transform="translate(79.499 67.274)" fill="#fff"/>
    <path id="Path_1-2" data-name="Path 1" d="M1.7-7.744C1.7-2.976,4.928.384,9.44.384a7.972,7.972,0,0,0,6.048-2.5L14.624-3.2A6.792,6.792,0,0,1,9.568-1.056C5.92-1.056,3.68-3.84,3.52-7.2H16.448v-.448c0-4.448-2.592-8.192-7.3-8.192C4.864-15.84,1.7-12.224,1.7-7.744ZM9.12-14.4c3.872,0,5.6,3.264,5.632,5.888H3.52C3.648-11.2,5.472-14.4,9.12-14.4ZM32.128,0h1.7V-21.344h-1.7v8.384a6.561,6.561,0,0,0-5.376-2.88c-4.1,0-6.912,3.232-6.912,8.128,0,4.96,2.816,8.1,6.912,8.1a6.584,6.584,0,0,0,5.376-2.848Zm0-3.872A6.2,6.2,0,0,1,27.04-1.12c-3.424,0-5.408-2.848-5.408-6.592s1.984-6.624,5.408-6.624a6.173,6.173,0,0,1,5.088,2.816ZM39.84-18.08a1.284,1.284,0,0,0,1.28-1.28,1.284,1.284,0,0,0-1.28-1.28,1.3,1.3,0,0,0-1.28,1.28A1.3,1.3,0,0,0,39.84-18.08ZM39.008,0h1.664V-15.456H39.008ZM49.216.384a3.475,3.475,0,0,0,2.624-.96l-.64-1.28a2.415,2.415,0,0,1-1.728.736c-1.088,0-1.6-.864-1.6-2.112V-13.984h3.136v-1.472H47.872V-19.68h-1.7v4.224h-2.56v1.472h2.56V-2.976C46.176-.864,47.168.384,49.216.384Zm11.968,0c4.576,0,7.456-3.616,7.456-8.128s-2.88-8.1-7.456-8.1c-4.512,0-7.424,3.584-7.424,8.1S56.672.384,61.184.384Zm0-1.5c-3.584,0-5.632-3.168-5.632-6.624,0-3.424,2.048-6.592,5.632-6.592,3.648,0,5.664,3.168,5.664,6.592C66.848-4.288,64.832-1.12,61.184-1.12ZM72.928,0h1.664V-11.264a5.89,5.89,0,0,1,4.384-2.752,3.513,3.513,0,0,1,.832.064v-1.824A6.64,6.64,0,0,0,74.592-12.8v-2.656H72.928Z" transform="translate(160.252 67.748)" fill="#c3c3c3"/>
  </g>
</svg>
