<svg xmlns="http://www.w3.org/2000/svg" width="42.9" height="40.755" viewBox="0 0 42.9 40.755"><g id="icon" transform="translate(0 -1.5)"><path id="Path_455" data-name="Path 455" d="M48.993,39.806l-4,5.749-2.824-2.317a.715.715,0,1,0-.907,1.1l3.422,2.809a.714.714,0,0,0,.453.163.652.652,0,0,0,.1-.007.716.716,0,0,0,.489-.3l4.443-6.384a.715.715,0,0,0-1.174-.817Z" transform="translate(-11.685 -10.83)" fill="#f82246"></path><path id="Path_456" data-name="Path 456" d="M33.6,23.665a9.241,9.241,0,0,0-1.525.137,16.368,16.368,0,0,0,2.006-3.985A2.839,2.839,0,0,0,35.75,17.23V14.37a2.851,2.851,0,0,0-.715-1.877V8.69a6.41,6.41,0,0,0-1.5-4.665C32.071,2.349,29.688,1.5,26.455,1.5s-5.616.849-7.084,2.524A6.21,6.21,0,0,0,17.9,7.46a9.287,9.287,0,0,0-4.31-.955c-7.428,0-7.861,6.331-7.865,6.435v3.274A2.489,2.489,0,0,0,5,17.88v2.47a2.551,2.551,0,0,0,.937,1.977A10.958,10.958,0,0,0,8.548,26.82v1.961a1.553,1.553,0,0,1-.837,1.369L2.954,33.134A5.665,5.665,0,0,0,0,38.11v2.715H28.674A9.29,9.29,0,1,0,33.6,23.665ZM10.01,37.795v1.6H1.43V38.11a4.256,4.256,0,0,1,2.246-3.742l4.756-2.984a2.963,2.963,0,0,0,1.545-2.6V26.214L9.75,26a9.524,9.524,0,0,1-2.48-4.258l-.065-.283L6.961,21.3a1.136,1.136,0,0,1-.526-.954V17.88a1.25,1.25,0,0,1,.48-.839l.235-.212V12.981c.013-.205.385-5.046,6.436-5.046a7.444,7.444,0,0,1,4.29,1.175v3.383a2.851,2.851,0,0,0-.715,1.877v2.86a2.875,2.875,0,0,0,.072.638c.019.083.058.159.084.239a2.824,2.824,0,0,0,.126.358l0,0a2.864,2.864,0,0,0,.786.985c0,.014.008.026.011.039.043.164.088.327.137.486l.058.187c.01.033.022.066.033.1.025.077.049.154.075.23.043.125.088.254.14.4.022.059.046.112.069.169.059.149.117.294.179.437.015.034.028.071.043.105l.04.09c.019.041.038.079.056.119.07.153.139.3.21.445.011.023.022.048.034.071.045.089.09.174.135.26.077.147.153.286.229.42.037.066.074.13.11.192.1.176.2.337.3.488.021.032.041.066.061.1.173.268.323.485.448.655l.089.122.051.069v2.366a1.889,1.889,0,0,1-.985,1.659l-1.892,1.032-.464.253-4.023,2.194A6.446,6.446,0,0,0,10.01,37.795Zm1.43,1.6v-1.6a5.017,5.017,0,0,1,2.616-4.407l6.379-3.479a3.32,3.32,0,0,0,1.73-2.915V24.12h0l-.139-.166L22,23.922s-.046-.056-.118-.15l-.014-.017c-.038-.049-.082-.109-.133-.179l0,0c-.107-.148-.24-.34-.389-.572l-.01-.016c-.07-.11-.144-.229-.22-.355L21.1,22.6c-.162-.271-.333-.578-.5-.917h0c-.091-.182-.182-.374-.27-.573h0l-.037-.083h0c-.039-.089-.079-.183-.119-.28l-.043-.107c-.037-.094-.075-.188-.115-.3-.073-.194-.142-.4-.207-.607l-.039-.127c0-.014-.009-.029-.014-.044-.067-.226-.132-.457-.186-.694l-.065-.283-.244-.157a1.426,1.426,0,0,1-.662-1.2V14.37a1.411,1.411,0,0,1,.479-1.055L19.3,13.1V8.4l-.019-.015a4.949,4.949,0,0,1,1.16-3.415c1.185-1.352,3.207-2.037,6.009-2.037s4.81.68,6,2.022a5.033,5.033,0,0,1,1.16,3.6L33.6,13.1l.236.213a1.409,1.409,0,0,1,.479,1.054v2.86A1.422,1.422,0,0,1,33.3,18.588l-.356.109-.114.354a14.968,14.968,0,0,1-2.026,4.085,9.407,9.407,0,0,1-.6.771l-.178.2v.272c-.18.075-.353.164-.527.25-.044.022-.089.042-.133.064-.157.081-.309.167-.46.255-.079.046-.157.094-.235.142-.137.087-.274.174-.406.267-.086.06-.168.125-.252.189q-.31.234-.6.493c-.092.083-.186.164-.275.25s-.2.2-.3.307c-.082.087-.163.175-.242.266-.094.109-.188.218-.277.33-.074.093-.142.189-.212.284q-.223.3-.422.627c-.062.1-.127.2-.184.3-.072.127-.137.258-.2.389-.054.106-.105.212-.155.321-.059.13-.117.26-.17.393s-.1.265-.146.4c-.054.155-.107.311-.152.47-.057.2-.109.4-.154.6-.022.1-.04.206-.059.31q-.05.273-.084.551c-.011.092-.023.184-.031.278-.027.279-.044.559-.044.842a9.234,9.234,0,0,0,.047.925c.011.116.034.228.05.342.026.188.049.376.086.561.025.125.061.247.091.37.041.171.08.342.132.511.035.114.079.224.118.336.06.174.119.348.19.518.039.1.086.186.129.279.082.182.166.363.26.538.041.077.088.15.132.226.106.185.213.368.332.546.044.065.092.127.137.191.126.179.255.356.394.526.051.063.107.122.16.183.111.129.217.26.335.383H11.44ZM33.6,40.825A7.817,7.817,0,0,1,29.238,39.5a7.91,7.91,0,0,1-.695-.526c-.077-.066-.15-.136-.225-.2-.141-.128-.277-.26-.408-.4-.084-.088-.164-.177-.244-.268-.117-.135-.227-.275-.335-.417-.069-.091-.139-.179-.2-.272a7.972,7.972,0,0,1-.44-.71c-.031-.057-.055-.117-.084-.175-.1-.2-.2-.412-.288-.625-.037-.093-.069-.188-.1-.282-.067-.187-.129-.378-.182-.57-.027-.1-.054-.2-.077-.3-.048-.2-.085-.41-.117-.618-.014-.089-.031-.177-.041-.267a8.118,8.118,0,0,1-.056-.906c0-.242.015-.482.036-.719.008-.084.019-.168.03-.252.019-.15.041-.3.068-.446.019-.1.037-.2.059-.3.029-.129.063-.255.1-.38.029-.1.055-.21.089-.314.061-.191.131-.379.207-.563.051-.125.11-.247.168-.368.038-.081.075-.161.116-.24.062-.122.129-.241.2-.359.043-.074.087-.146.132-.217.074-.118.148-.236.228-.35.041-.058.085-.113.127-.17a7.871,7.871,0,0,1,.536-.647c.044-.047.085-.1.13-.143.1-.1.2-.2.3-.293.059-.055.119-.111.181-.164q.161-.14.33-.272c.057-.044.116-.087.174-.13.124-.092.25-.183.38-.267l.028-.017a7.856,7.856,0,0,1,1.583-.781c.047-.017.094-.036.142-.052l.211-.074A7.865,7.865,0,1,1,33.6,40.825Z" fill="#f82246"></path></g></svg>