<svg xmlns="http://www.w3.org/2000/svg" width="204" height="204" viewBox="0 0 204 204">
  <g id="home-ad-icon" transform="translate(-935 -303)">
    <g id="Path_37" data-name="Path 37" transform="translate(935 303)" fill="none">
      <path d="M6,0H198a6,6,0,0,1,6,6V198a6,6,0,0,1-6,6H6a6,6,0,0,1-6-6V6A6,6,0,0,1,6,0Z" stroke="none"/>
      <path d="M 6 4 C 4.897201538085938 4 4 4.897201538085938 4 6 L 4 198 C 4 199.1027984619141 4.897201538085938 200 6 200 L 198 200 C 199.1027984619141 200 200 199.1027984619141 200 198 L 200 6 C 200 4.897201538085938 199.1027984619141 4 198 4 L 6 4 M 6 0 L 198 0 C 201.3137054443359 0 204 2.686294555664062 204 6 L 204 198 C 204 201.3137054443359 201.3137054443359 204 198 204 L 6 204 C 2.686294555664062 204 0 201.3137054443359 0 198 L 0 6 C 0 2.686294555664062 2.686294555664062 0 6 0 Z" stroke="none" fill="#000"/>
    </g>
    <path id="Path_36" data-name="Path 36" d="M0,0H200" transform="translate(936.5 330.5)" fill="none" stroke="#000" stroke-width="4"/>
    <path id="Path_35" data-name="Path 35" d="M3.5,0A3.5,3.5,0,1,1,0,3.5,3.5,3.5,0,0,1,3.5,0Z" transform="matrix(0.966, 0.259, -0.259, 0.966, 946.318, 312.989)"/>
    <path id="Path_34" data-name="Path 34" d="M3.5,0A3.5,3.5,0,1,1,0,3.5,3.5,3.5,0,0,1,3.5,0Z" transform="matrix(0.966, 0.259, -0.259, 0.966, 955.891, 312.989)"/>
    <path id="Path_33" data-name="Path 33" d="M3.5,0A3.5,3.5,0,1,1,0,3.5,3.5,3.5,0,0,1,3.5,0Z" transform="matrix(0.966, 0.259, -0.259, 0.966, 965.464, 312.989)"/>
    <g id="Path_32" data-name="Path 32" transform="translate(958 421)" fill="#ffe7b2">
      <path d="M 45 29 L 3 29 C 1.897199988365173 29 1 28.1028003692627 1 27 L 1 3 C 1 1.897199988365173 1.897199988365173 1 3 1 L 45 1 C 46.10279846191406 1 47 1.897199988365173 47 3 L 47 27 C 47 28.1028003692627 46.10279846191406 29 45 29 Z" stroke="none"/>
      <path d="M 3 2 C 2.448600769042969 2 2 2.448600769042969 2 3 L 2 27 C 2 27.55139923095703 2.448600769042969 28 3 28 L 45 28 C 45.55139923095703 28 46 27.55139923095703 46 27 L 46 3 C 46 2.448600769042969 45.55139923095703 2 45 2 L 3 2 M 3 0 L 45 0 C 46.6568489074707 0 48 1.3431396484375 48 3 L 48 27 C 48 28.65685081481934 46.6568489074707 30 45 30 L 3 30 C 1.343151092529297 30 0 28.65685081481934 0 27 L 0 3 C 0 1.3431396484375 1.343151092529297 0 3 0 Z" stroke="none" fill="#ffb100"/>
    </g>
    <g id="Path_31" data-name="Path 31" transform="translate(1014 421)" fill="#ffe7b2">
      <path d="M 44 29 L 3 29 C 1.897199988365173 29 1 28.1028003692627 1 27 L 1 3 C 1 1.897199988365173 1.897199988365173 1 3 1 L 44 1 C 45.10279846191406 1 46 1.897199988365173 46 3 L 46 27 C 46 28.1028003692627 45.10279846191406 29 44 29 Z" stroke="none"/>
      <path d="M 3 2 C 2.448600769042969 2 2 2.448600769042969 2 3 L 2 27 C 2 27.55139923095703 2.448600769042969 28 3 28 L 44 28 C 44.55139923095703 28 45 27.55139923095703 45 27 L 45 3 C 45 2.448600769042969 44.55139923095703 2 44 2 L 3 2 M 3 0 L 44 0 C 45.6568489074707 0 47 1.3431396484375 47 3 L 47 27 C 47 28.65685081481934 45.6568489074707 30 44 30 L 3 30 C 1.343151092529297 30 0 28.65685081481934 0 27 L 0 3 C 0 1.3431396484375 1.343151092529297 0 3 0 Z" stroke="none" fill="#ffb100"/>
    </g>
    <g id="Path_30" data-name="Path 30" transform="translate(1070 421)" fill="#ffe7b2">
      <path d="M 44 29 L 3 29 C 1.897199988365173 29 1 28.1028003692627 1 27 L 1 3 C 1 1.897199988365173 1.897199988365173 1 3 1 L 44 1 C 45.10279846191406 1 46 1.897199988365173 46 3 L 46 27 C 46 28.1028003692627 45.10279846191406 29 44 29 Z" stroke="none"/>
      <path d="M 3 2 C 2.448600769042969 2 2 2.448600769042969 2 3 L 2 27 C 2 27.55139923095703 2.448600769042969 28 3 28 L 44 28 C 44.55139923095703 28 45 27.55139923095703 45 27 L 45 3 C 45 2.448600769042969 44.55139923095703 2 44 2 L 3 2 M 3 0 L 44 0 C 45.6568489074707 0 47 1.3431396484375 47 3 L 47 27 C 47 28.65685081481934 45.6568489074707 30 44 30 L 3 30 C 1.343151092529297 30 0 28.65685081481934 0 27 L 0 3 C 0 1.3431396484375 1.343151092529297 0 3 0 Z" stroke="none" fill="#ffb100"/>
    </g>
    <g id="Path_29" data-name="Path 29" transform="translate(958 459)" fill="#fff">
      <path d="M 45 26 L 2 26 C 1.448600053787231 26 1 25.55139923095703 1 25 L 1 2 C 1 1.448600053787231 1.448600053787231 1 2 1 L 45 1 C 45.55139923095703 1 46 1.448600053787231 46 2 L 46 25 C 46 25.55139923095703 45.55139923095703 26 45 26 Z" stroke="none"/>
      <path d="M 2 2 L 2 25 L 45 25 L 45 2 L 2 2 M 2 0 L 45 0 C 46.10456848144531 0 47 0.8954296112060547 47 2 L 47 25 C 47 26.10457038879395 46.10456848144531 27 45 27 L 2 27 C 0.8954315185546875 27 0 26.10457038879395 0 25 L 0 2 C 0 0.8954296112060547 0.8954315185546875 0 2 0 Z" stroke="none" fill="#aaa"/>
    </g>
    <g id="Path_28" data-name="Path 28" transform="translate(958 349)" fill="#fff">
      <path d="M 156 62 L 3 62 C 1.897187471389771 62 1 61.10281372070312 1 60 L 1 3 C 1 1.897187471389771 1.897187471389771 1 3 1 L 156 1 C 157.1028137207031 1 158 1.897187471389771 158 3 L 158 60 C 158 61.10281372070312 157.1028137207031 62 156 62 Z" stroke="none"/>
      <path d="M 3 2 C 2.4486083984375 2 2 2.4486083984375 2 3 L 2 60 C 2 60.5513916015625 2.4486083984375 61 3 61 L 156 61 C 156.5513916015625 61 157 60.5513916015625 157 60 L 157 3 C 157 2.4486083984375 156.5513916015625 2 156 2 L 3 2 M 3 0 L 156 0 C 157.6568450927734 0 159 1.343151092529297 159 3 L 159 60 C 159 61.6568489074707 157.6568450927734 63 156 63 L 3 63 C 1.343124389648438 63 0 61.6568489074707 0 60 L 0 3 C 0 1.343151092529297 1.343124389648438 0 3 0 Z" stroke="none" fill="#aaa"/>
    </g>
    <g id="Path_27" data-name="Path 27" transform="translate(1013 459)" fill="#fff">
      <path d="M 102 26 L 2 26 C 1.448600053787231 26 1 25.55139923095703 1 25 L 1 2 C 1 1.448600053787231 1.448600053787231 1 2 1 L 102 1 C 102.551399230957 1 103 1.448600053787231 103 2 L 103 25 C 103 25.55139923095703 102.551399230957 26 102 26 Z" stroke="none"/>
      <path d="M 2 2 L 2 25 L 102 25 L 102 2 L 2 2 M 2 0 L 102 0 C 103.1045684814453 0 104 0.8954315185546875 104 2 L 104 25 C 104 26.10456848144531 103.1045684814453 27 102 27 L 2 27 C 0.8954315185546875 27 0 26.10456848144531 0 25 L 0 2 C 0 0.8954315185546875 0.8954315185546875 0 2 0 Z" stroke="none" fill="#aaa"/>
    </g>
  </g>
</svg>
