<svg xmlns="http://www.w3.org/2000/svg" width="204" height="204" viewBox="0 0 204 204">
  <g id="search-results-ad-icon" transform="translate(-692 -303)">
    <g id="Path_26" data-name="Path 26" transform="translate(692 303)" fill="none">
      <path d="M6,0H198a6,6,0,0,1,6,6V198a6,6,0,0,1-6,6H6a6,6,0,0,1-6-6V6A6,6,0,0,1,6,0Z" stroke="none"/>
      <path d="M 6 4 C 4.897201538085938 4 4 4.897201538085938 4 6 L 4 198 C 4 199.1027984619141 4.897201538085938 200 6 200 L 198 200 C 199.1027984619141 200 200 199.1027984619141 200 198 L 200 6 C 200 4.897201538085938 199.1027984619141 4 198 4 L 6 4 M 6 0 L 198 0 C 201.3137054443359 0 204 2.686294555664062 204 6 L 204 198 C 204 201.3137054443359 201.3137054443359 204 198 204 L 6 204 C 2.686294555664062 204 0 201.3137054443359 0 198 L 0 6 C 0 2.686294555664062 2.686294555664062 0 6 0 Z" stroke="none" fill="#000"/>
    </g>
    <path id="Path_25" data-name="Path 25" d="M0,0H200" transform="translate(693.5 330.5)" fill="none" stroke="#000" stroke-width="4"/>
    <path id="Path_24" data-name="Path 24" d="M3.5,0A3.5,3.5,0,1,1,0,3.5,3.5,3.5,0,0,1,3.5,0Z" transform="matrix(0.966, 0.259, -0.259, 0.966, 703.318, 312.989)"/>
    <path id="Path_23" data-name="Path 23" d="M3.5,0A3.5,3.5,0,1,1,0,3.5,3.5,3.5,0,0,1,3.5,0Z" transform="matrix(0.966, 0.259, -0.259, 0.966, 712.891, 312.989)"/>
    <path id="Path_22" data-name="Path 22" d="M3.5,0A3.5,3.5,0,1,1,0,3.5,3.5,3.5,0,0,1,3.5,0Z" transform="matrix(0.966, 0.259, -0.259, 0.966, 722.464, 312.989)"/>
    <g id="Path_21" data-name="Path 21" transform="translate(715 349)" fill="#ffe7b2">
      <path d="M 101 27 L 3 27 C 1.897199988365173 27 1 26.1028003692627 1 25 L 1 3 C 1 1.897199988365173 1.897199988365173 1 3 1 L 101 1 C 102.1027984619141 1 103 1.897199988365173 103 3 L 103 25 C 103 26.1028003692627 102.1027984619141 27 101 27 Z" stroke="none"/>
      <path d="M 3 2 C 2.448600769042969 2 2 2.448600769042969 2 3 L 2 25 C 2 25.55139923095703 2.448600769042969 26 3 26 L 101 26 C 101.551399230957 26 102 25.55139923095703 102 25 L 102 3 C 102 2.448600769042969 101.551399230957 2 101 2 L 3 2 M 3 0 L 101 0 C 102.6568450927734 0 104 1.343137741088867 104 3 L 104 25 C 104 26.65686225891113 102.6568450927734 28 101 28 L 3 28 C 1.3431396484375 28 0 26.65686225891113 0 25 L 0 3 C 0 1.343137741088867 1.3431396484375 0 3 0 Z" stroke="none" fill="#ffb100"/>
    </g>
    <g id="Path_20" data-name="Path 20" transform="translate(831 422)" fill="#fff">
      <path d="M 41 18 L 2 18 C 1.448600053787231 18 1 17.55139923095703 1 17 L 1 2 C 1 1.448600053787231 1.448600053787231 1 2 1 L 41 1 C 41.55139923095703 1 42 1.448600053787231 42 2 L 42 17 C 42 17.55139923095703 41.55139923095703 18 41 18 Z" stroke="none"/>
      <path d="M 2 2 L 2 17 L 41 17 L 41 2 L 2 2 M 2 0 L 41 0 C 42.10456848144531 0 43 0.8954296112060547 43 2 L 43 17 C 43 18.10457038879395 42.10456848144531 19 41 19 L 2 19 C 0.8954315185546875 19 0 18.10457038879395 0 17 L 0 2 C 0 0.8954296112060547 0.8954315185546875 0 2 0 Z" stroke="none" fill="#aaa"/>
    </g>
    <g id="Path_19" data-name="Path 19" transform="translate(831 451)" fill="#fff">
      <path d="M 40 34 L 3 34 C 1.897199988365173 34 1 33.10279846191406 1 32 L 1 3 C 1 1.897199988365173 1.897199988365173 1 3 1 L 40 1 C 41.10279846191406 1 42 1.897199988365173 42 3 L 42 32 C 42 33.10279846191406 41.10279846191406 34 40 34 Z" stroke="none"/>
      <path d="M 3 2 C 2.448600769042969 2 2 2.448600769042969 2 3 L 2 32 C 2 32.55139923095703 2.448600769042969 33 3 33 L 40 33 C 40.55139923095703 33 41 32.55139923095703 41 32 L 41 3 C 41 2.448600769042969 40.55139923095703 2 40 2 L 3 2 M 3 0 L 40 0 C 41.6568489074707 0 43 1.343151092529297 43 3 L 43 32 C 43 33.6568489074707 41.6568489074707 35 40 35 L 3 35 C 1.343151092529297 35 0 33.6568489074707 0 32 L 0 3 C 0 1.343151092529297 1.343151092529297 0 3 0 Z" stroke="none" fill="#aaa"/>
    </g>
    <g id="Path_18" data-name="Path 18" transform="translate(831 394)" fill="#fff">
      <path d="M 41 18 L 2 18 C 1.448600053787231 18 1 17.55139923095703 1 17 L 1 2 C 1 1.448600053787231 1.448600053787231 1 2 1 L 41 1 C 41.55139923095703 1 42 1.448600053787231 42 2 L 42 17 C 42 17.55139923095703 41.55139923095703 18 41 18 Z" stroke="none"/>
      <path d="M 2 2 L 2 17 L 41 17 L 41 2 L 2 2 M 2 0 L 41 0 C 42.10456848144531 0 43 0.8954296112060547 43 2 L 43 17 C 43 18.10457038879395 42.10456848144531 19 41 19 L 2 19 C 0.8954315185546875 19 0 18.10457038879395 0 17 L 0 2 C 0 0.8954296112060547 0.8954315185546875 0 2 0 Z" stroke="none" fill="#aaa"/>
    </g>
    <g id="Path_17" data-name="Path 17" transform="translate(715 422)" fill="#fff">
      <path d="M 102 27 L 2 27 C 1.448600053787231 27 1 26.55139923095703 1 26 L 1 2 C 1 1.448600053787231 1.448600053787231 1 2 1 L 102 1 C 102.551399230957 1 103 1.448600053787231 103 2 L 103 26 C 103 26.55139923095703 102.551399230957 27 102 27 Z" stroke="none"/>
      <path d="M 2 2 L 2 26 L 102 26 L 102 2 L 2 2 M 2 0 L 102 0 C 103.1045684814453 0 104 0.8954315185546875 104 2 L 104 26 C 104 27.10456848144531 103.1045684814453 28 102 28 L 2 28 C 0.8954315185546875 28 0 27.10456848144531 0 26 L 0 2 C 0 0.8954315185546875 0.8954315185546875 0 2 0 Z" stroke="none" fill="#aaa"/>
    </g>
    <g id="Path_16" data-name="Path 16" transform="translate(715 458)" fill="#fff">
      <path d="M 101 27 L 3 27 C 1.897199988365173 27 1 26.1028003692627 1 25 L 1 3 C 1 1.897199988365173 1.897199988365173 1 3 1 L 101 1 C 102.1027984619141 1 103 1.897199988365173 103 3 L 103 25 C 103 26.1028003692627 102.1027984619141 27 101 27 Z" stroke="none"/>
      <path d="M 3 2 C 2.448600769042969 2 2 2.448600769042969 2 3 L 2 25 C 2 25.55139923095703 2.448600769042969 26 3 26 L 101 26 C 101.551399230957 26 102 25.55139923095703 102 25 L 102 3 C 102 2.448600769042969 101.551399230957 2 101 2 L 3 2 M 3 0 L 101 0 C 102.6568450927734 0 104 1.343137741088867 104 3 L 104 25 C 104 26.65686225891113 102.6568450927734 28 101 28 L 3 28 C 1.3431396484375 28 0 26.65686225891113 0 25 L 0 3 C 0 1.343137741088867 1.3431396484375 0 3 0 Z" stroke="none" fill="#aaa"/>
    </g>
    <g id="Path_15" data-name="Path 15" transform="translate(715 385)" fill="#fff">
      <path d="M 102 28 L 2 28 C 1.448600053787231 28 1 27.55139923095703 1 27 L 1 2 C 1 1.448600053787231 1.448600053787231 1 2 1 L 102 1 C 102.551399230957 1 103 1.448600053787231 103 2 L 103 27 C 103 27.55139923095703 102.551399230957 28 102 28 Z" stroke="none"/>
      <path d="M 2 2 L 2 27 L 102 27 L 102 2 L 2 2 M 2 0 L 102 0 C 103.1045684814453 0 104 0.8954315185546875 104 2 L 104 27 C 104 28.10456848144531 103.1045684814453 29 102 29 L 2 29 C 0.8954315185546875 29 0 28.10456848144531 0 27 L 0 2 C 0 0.8954315185546875 0.8954315185546875 0 2 0 Z" stroke="none" fill="#aaa"/>
    </g>
    <g id="Path_14" data-name="Path 14" transform="translate(831 349)" fill="#fff">
      <path d="M 40 34 L 3 34 C 1.897199988365173 34 1 33.10279846191406 1 32 L 1 3 C 1 1.897199988365173 1.897199988365173 1 3 1 L 40 1 C 41.10279846191406 1 42 1.897199988365173 42 3 L 42 32 C 42 33.10279846191406 41.10279846191406 34 40 34 Z" stroke="none"/>
      <path d="M 3 2 C 2.448600769042969 2 2 2.448600769042969 2 3 L 2 32 C 2 32.55139923095703 2.448600769042969 33 3 33 L 40 33 C 40.55139923095703 33 41 32.55139923095703 41 32 L 41 3 C 41 2.448600769042969 40.55139923095703 2 40 2 L 3 2 M 3 0 L 40 0 C 41.6568489074707 0 43 1.343151092529297 43 3 L 43 32 C 43 33.6568489074707 41.6568489074707 35 40 35 L 3 35 C 1.343151092529297 35 0 33.6568489074707 0 32 L 0 3 C 0 1.343151092529297 1.343151092529297 0 3 0 Z" stroke="none" fill="#aaa"/>
    </g>
  </g>
</svg>
