<svg id="google-svgrepo-com" xmlns="http://www.w3.org/2000/svg" width="43.907" height="43.907" viewBox="0 0 43.907 43.907">
  <path id="Path_1" data-name="Path 1" d="M286.472,211.48H268.563a1.432,1.432,0,0,0-1.432,1.432v5.721a1.432,1.432,0,0,0,1.432,1.432h10.085a13.464,13.464,0,0,1-5.8,6.791l4.3,7.444a21.526,21.526,0,0,0,10.977-18.826,14.513,14.513,0,0,0-.247-2.811A1.438,1.438,0,0,0,286.472,211.48Z" transform="translate(-244.223 -193.344)" fill="#167ee6"/>
  <path id="Path_2" data-name="Path 2" d="M53.413,340.534a13.36,13.36,0,0,1-11.558-6.687l-7.444,4.291a21.936,21.936,0,0,0,29.979,8.046v-.01l-4.3-7.444A13.262,13.262,0,0,1,53.413,340.534Z" transform="translate(-31.46 -305.218)" fill="#12b347"/>
  <path id="Path_3" data-name="Path 3" d="M266.977,398.234v-.01l-4.3-7.444a13.263,13.263,0,0,1-6.676,1.8v8.59A21.916,21.916,0,0,0,266.977,398.234Z" transform="translate(-234.047 -357.268)" fill="#0f993e"/>
  <path id="Path_4" data-name="Path 4" d="M8.59,139.085a13.264,13.264,0,0,1,1.8-6.676l-7.444-4.291a21.853,21.853,0,0,0,0,21.933l7.444-4.291A13.264,13.264,0,0,1,8.59,139.085Z" transform="translate(0 -117.132)" fill="#ffd500"/>
  <path id="Path_5" data-name="Path 5" d="M53.413,8.59A13.3,13.3,0,0,1,61.9,11.636a1.426,1.426,0,0,0,1.919-.086L67.87,7.5a1.443,1.443,0,0,0-.083-2.11,21.905,21.905,0,0,0-33.377,5.6l7.444,4.291A13.36,13.36,0,0,1,53.413,8.59Z" transform="translate(-31.46)" fill="#ff4b26"/>
  <path id="Path_6" data-name="Path 6" d="M264.484,11.636a1.426,1.426,0,0,0,1.919-.086L270.457,7.5a1.443,1.443,0,0,0-.083-2.11A21.887,21.887,0,0,0,256,0V8.59A13.3,13.3,0,0,1,264.484,11.636Z" transform="translate(-234.047)" fill="#d93f21"/>
</svg>
