<svg id="Group_17" data-name="Group 17" xmlns="http://www.w3.org/2000/svg" width="21.047" height="19.179" viewBox="0 0 21.047 19.179">
  <path id="Path_7" data-name="Path 7" d="M19.187,20.511c-.449-.328-.794-.575-1.133-.831-1.087-.813-2.158-1.651-3.267-2.433a2.01,2.01,0,0,0-1.067-.361c-2.363-.032-4.726-.007-7.09-.026a8.241,8.241,0,0,1-1.22-.19c0-.063-.009-.126-.013-.189.59-.448,1.173-.909,1.777-1.336a.947.947,0,0,1,.509-.088c2.284-.006,4.569-.013,6.853.01a1.543,1.543,0,0,1,.8.288c.658.453,1.288.949,2.035,1.506v-1.8h1.778V6.811c-.82,0-1.6-.02-2.384.023-.109.006-.285.319-.289.493-.025,1.279-.008,2.56-.015,3.84a1.813,1.813,0,0,1-2.04,2.034c-2.362.007-4.726-.015-7.09.016a2,2,0,0,0-1.067.359c-1.33.95-2.624,1.945-3.934,2.925-.134.1-.279.185-.516.341,0-1.084-.012-2.061.006-3.034.007-.374-.033-.589-.49-.68A1.676,1.676,0,0,1,.012,11.45Q-.01,7.284.01,3.12A1.738,1.738,0,0,1,1.764,1.342q6.47-.021,12.938,0a1.755,1.755,0,0,1,1.747,1.729,10.851,10.851,0,0,1,0,1.3c-.036.471.093.674.615.636.686-.048,1.378-.019,2.065-.008a1.775,1.775,0,0,1,1.9,1.831c.029,2.737.022,5.474,0,8.212a1.73,1.73,0,0,1-1.436,1.777c-.326.073-.413.2-.408.51.013.827,0,1.654,0,2.48C19.187,20,19.187,20.189,19.187,20.511ZM14.546,11.4a1.118,1.118,0,0,0,.073-.2c.007-2.537,0-5.073.02-7.612,0-.41-.221-.427-.526-.427-3.916,0-7.831.01-11.746,0-.442,0-.566.138-.562.574.02,2.381.01,4.761.014,7.142,0,.167.029.335.049.554H3.686V13.19c.749-.563,1.378-1.063,2.039-1.513a1.559,1.559,0,0,1,.8-.269c1.081-.029,2.163-.011,3.246-.01Z" transform="translate(0.001 -1.332)" fill="#2076e8"/>
  <g id="Group_16" data-name="Group 16" transform="translate(4.224 5.015)">
    <circle id="Ellipse_1" data-name="Ellipse 1" cx="1.009" cy="1.009" r="1.009" fill="#2076e8"/>
    <circle id="Ellipse_2" data-name="Ellipse 2" cx="1.009" cy="1.009" r="1.009" transform="translate(3.421)" fill="#2076e8"/>
    <circle id="Ellipse_3" data-name="Ellipse 3" cx="1.009" cy="1.009" r="1.009" transform="translate(6.841)" fill="#2076e8"/>
  </g>
</svg>
