<svg xmlns="http://www.w3.org/2000/svg" width="138.72" height="22.2" viewBox="0 0 138.72 22.2">
  <defs>
    <style>
      .cls-1 {
        fill: #c3c3c3;
      }

      .cls-2 {
        fill: #fff;
      }
    </style>
  </defs>
  <g id="Group_2" data-name="Group 2" transform="translate(-81.629 -45.374)">
    <path id="Path_2" data-name="Path 2" class="cls-1" d="M1.26-7.86a8.554,8.554,0,0,1,.57-3.12,7.623,7.623,0,0,1,1.605-2.55A7.7,7.7,0,0,1,5.88-15.24a7.488,7.488,0,0,1,3.09-.63,7.136,7.136,0,0,1,3.735.96,6.254,6.254,0,0,1,2.445,2.67l-1.47.48a5.011,5.011,0,0,0-1.98-2.025,5.6,5.6,0,0,0-2.82-.735,5.679,5.679,0,0,0-2.4.51A5.994,5.994,0,0,0,4.545-12.6a6.567,6.567,0,0,0-1.29,2.115A7.283,7.283,0,0,0,2.79-7.86a7.12,7.12,0,0,0,.5,2.655,7.116,7.116,0,0,0,1.32,2.16A6.281,6.281,0,0,0,6.54-1.59a5.347,5.347,0,0,0,2.37.54,5.526,5.526,0,0,0,1.6-.24,6.929,6.929,0,0,0,1.47-.63,5.1,5.1,0,0,0,1.17-.915,2.865,2.865,0,0,0,.675-1.1l1.47.42A4.874,4.874,0,0,1,14.385-2,6.149,6.149,0,0,1,12.93-.78a7.453,7.453,0,0,1-1.845.8A7.605,7.605,0,0,1,9,.3,7.267,7.267,0,0,1,5.94-.345,7.56,7.56,0,0,1,3.5-2.115,8.59,8.59,0,0,1,1.86-4.71,8.254,8.254,0,0,1,1.26-7.86ZM24.78.3a7.167,7.167,0,0,1-3.045-.645A7.543,7.543,0,0,1,19.32-2.1a8.1,8.1,0,0,1-1.59-2.58,8.472,8.472,0,0,1-.57-3.09,8.36,8.36,0,0,1,.585-3.12,8.176,8.176,0,0,1,1.62-2.58,7.769,7.769,0,0,1,2.415-1.755,7,7,0,0,1,3-.645,7.1,7.1,0,0,1,3.015.645,7.717,7.717,0,0,1,2.43,1.755,8.176,8.176,0,0,1,1.62,2.58,8.36,8.36,0,0,1,.585,3.12,8.28,8.28,0,0,1-.585,3.09A8.319,8.319,0,0,1,30.24-2.1,7.5,7.5,0,0,1,27.81-.345,7.2,7.2,0,0,1,24.78.3ZM18.69-7.71a7,7,0,0,0,.48,2.595A6.783,6.783,0,0,0,20.475-3,6.19,6.19,0,0,0,22.41-1.575a5.474,5.474,0,0,0,2.37.525,5.474,5.474,0,0,0,2.37-.525A5.983,5.983,0,0,0,29.085-3.03,7.421,7.421,0,0,0,30.4-5.175,6.891,6.891,0,0,0,30.9-7.8,6.811,6.811,0,0,0,30.4-10.4a7.212,7.212,0,0,0-1.32-2.13A6.281,6.281,0,0,0,27.15-13.98a5.347,5.347,0,0,0-2.37-.54,5.282,5.282,0,0,0-2.34.54,6.35,6.35,0,0,0-1.95,1.47,6.926,6.926,0,0,0-1.32,2.175A7.233,7.233,0,0,0,18.69-7.71Zm24.36-6.54a6.228,6.228,0,0,0-3.69,1.245A6.234,6.234,0,0,0,37.17-9.75V0h-1.5V-15.6h1.41v3.84a7.532,7.532,0,0,1,2.145-2.685A5.494,5.494,0,0,1,42.09-15.63q.3,0,.54-.015t.42-.015ZM52.26.3A7.267,7.267,0,0,1,49.2-.345a7.56,7.56,0,0,1-2.445-1.77,8.36,8.36,0,0,1-1.62-2.6,8.44,8.44,0,0,1-.585-3.15,8.245,8.245,0,0,1,.585-3.1,8.176,8.176,0,0,1,1.6-2.55,7.415,7.415,0,0,1,2.43-1.725,7.342,7.342,0,0,1,3.03-.63,7.167,7.167,0,0,1,3.045.645,7.654,7.654,0,0,1,2.415,1.74,8.176,8.176,0,0,1,1.6,2.55A8.165,8.165,0,0,1,59.85-7.86q0,.15-.015.375T59.82-7.2H46.11A6.952,6.952,0,0,0,46.74-4.7a7.121,7.121,0,0,0,1.365,2A6.143,6.143,0,0,0,50.01-1.38a5.623,5.623,0,0,0,2.31.48,5.868,5.868,0,0,0,1.605-.225A6.418,6.418,0,0,0,55.4-1.74a5.272,5.272,0,0,0,1.2-.945A4.429,4.429,0,0,0,57.42-3.9l1.32.36A5.473,5.473,0,0,1,57.735-2a6.6,6.6,0,0,1-1.5,1.215,7.669,7.669,0,0,1-1.875.8A7.767,7.767,0,0,1,52.26.3Zm6.12-8.7a7.072,7.072,0,0,0-.615-2.52,6.728,6.728,0,0,0-1.35-1.965,6.055,6.055,0,0,0-1.9-1.29,5.779,5.779,0,0,0-2.31-.465,5.779,5.779,0,0,0-2.31.465,6.056,6.056,0,0,0-1.9,1.29,6.242,6.242,0,0,0-1.32,1.98A7.594,7.594,0,0,0,46.08-8.4Z" transform="translate(160.499 67.274)"/>
    <path id="Path_1" data-name="Path 1" class="cls-2" d="M2.13-21.9H4.77V-4.05a1.915,1.915,0,0,0,.465,1.365A1.7,1.7,0,0,0,6.54-2.19a3.5,3.5,0,0,0,.78-.1,6.374,6.374,0,0,0,.84-.255L8.58-.42A8.6,8.6,0,0,1,7.02.03,8.225,8.225,0,0,1,5.43.21,3.3,3.3,0,0,1,3.015-.66,3.253,3.253,0,0,1,2.13-3.09ZM10.62,0V-15.66h2.64V0Zm0-18.6v-3.3h2.64v3.3ZM23.1.3a12.148,12.148,0,0,1-3.72-.585A9.169,9.169,0,0,1,16.23-1.98l1.14-1.77a11.112,11.112,0,0,0,2.76,1.575,8.114,8.114,0,0,0,2.91.525,4.806,4.806,0,0,0,2.715-.675,2.164,2.164,0,0,0,1-1.9,1.717,1.717,0,0,0-.27-.975,2.272,2.272,0,0,0-.81-.705,6.618,6.618,0,0,0-1.38-.54q-.84-.24-1.95-.51-1.41-.36-2.43-.69a6.583,6.583,0,0,1-1.68-.78,2.731,2.731,0,0,1-.96-1.08,3.617,3.617,0,0,1-.3-1.56,4.538,4.538,0,0,1,.465-2.085,4.4,4.4,0,0,1,1.275-1.53,5.738,5.738,0,0,1,1.905-.93,8.485,8.485,0,0,1,2.355-.315,9.378,9.378,0,0,1,3.3.57,8.117,8.117,0,0,1,2.58,1.5l-1.2,1.59a6.738,6.738,0,0,0-2.22-1.305,7.505,7.505,0,0,0-2.52-.435,4.6,4.6,0,0,0-2.445.615,2.131,2.131,0,0,0-1,1.965,1.873,1.873,0,0,0,.2.9,1.7,1.7,0,0,0,.645.63,5.086,5.086,0,0,0,1.155.48q.7.21,1.695.45,1.56.36,2.715.735a7.815,7.815,0,0,1,1.92.885,3.413,3.413,0,0,1,1.14,1.2,3.476,3.476,0,0,1,.375,1.68A4.159,4.159,0,0,1,27.63-.99,7.255,7.255,0,0,1,23.1.3ZM40.56-.78q-.24.12-.63.285t-.885.33a7.744,7.744,0,0,1-1.08.27A6.867,6.867,0,0,1,36.75.21a4.007,4.007,0,0,1-2.49-.8A2.9,2.9,0,0,1,33.21-3.06V-13.59H31.08v-2.07h2.13v-5.22h2.64v5.22h3.51v2.07H35.85v9.72a1.637,1.637,0,0,0,.57,1.26,1.919,1.919,0,0,0,1.2.39,3.844,3.844,0,0,0,1.425-.255,6.2,6.2,0,0,0,.885-.4ZM49.98.3a7.977,7.977,0,0,1-3.24-.645A7.662,7.662,0,0,1,44.22-2.1a8,8,0,0,1-1.635-2.6A8.476,8.476,0,0,1,42-7.83a8.36,8.36,0,0,1,.585-3.12,7.912,7.912,0,0,1,1.65-2.58,7.832,7.832,0,0,1,2.535-1.755,7.977,7.977,0,0,1,3.24-.645,7.717,7.717,0,0,1,3.225.66,7.663,7.663,0,0,1,2.475,1.755,7.753,7.753,0,0,1,1.575,2.55A8.39,8.39,0,0,1,57.84-7.95q0,.33-.015.6a3.162,3.162,0,0,1-.045.42H44.79a6.073,6.073,0,0,0,.54,2.13A5.48,5.48,0,0,0,46.5-3.15a5.41,5.41,0,0,0,1.635,1.08,4.884,4.884,0,0,0,1.935.39,5.16,5.16,0,0,0,1.41-.195A6.12,6.12,0,0,0,52.77-2.4a4.476,4.476,0,0,0,1.065-.81,3.306,3.306,0,0,0,.705-1.08l2.28.63a5.757,5.757,0,0,1-1.065,1.59,7.063,7.063,0,0,1-1.56,1.245A8.058,8.058,0,0,1,52.23,0,8.368,8.368,0,0,1,49.98.3Zm5.37-9.18a5.643,5.643,0,0,0-.555-2.055,5.494,5.494,0,0,0-1.17-1.6,5.229,5.229,0,0,0-1.635-1.035,5.244,5.244,0,0,0-1.98-.375,5.244,5.244,0,0,0-1.98.375,5.094,5.094,0,0,0-1.635,1.05,5.314,5.314,0,0,0-1.14,1.6,5.9,5.9,0,0,0-.525,2.04ZM67.77.3a7.717,7.717,0,0,1-3.225-.66,7.723,7.723,0,0,1-2.49-1.77,7.963,7.963,0,0,1-1.6-2.58,8.472,8.472,0,0,1-.57-3.09,8.36,8.36,0,0,1,.585-3.12,8.176,8.176,0,0,1,1.62-2.58,7.723,7.723,0,0,1,2.49-1.77,7.644,7.644,0,0,1,3.195-.66,7.746,7.746,0,0,1,3.21.66,7.68,7.68,0,0,1,2.5,1.77,8.176,8.176,0,0,1,1.62,2.58A8.36,8.36,0,0,1,75.69-7.8a8.472,8.472,0,0,1-.57,3.09A7.835,7.835,0,0,1,73.5-2.13,7.9,7.9,0,0,1,70.995-.36,7.717,7.717,0,0,1,67.77.3ZM62.58-7.77a6.282,6.282,0,0,0,.405,2.28,5.824,5.824,0,0,0,1.11,1.83,5.241,5.241,0,0,0,1.65,1.23,4.65,4.65,0,0,0,2.025.45,4.65,4.65,0,0,0,2.025-.45A5.309,5.309,0,0,0,71.46-3.675a5.823,5.823,0,0,0,1.125-1.86,6.4,6.4,0,0,0,.4-2.3,6.318,6.318,0,0,0-.4-2.265,5.823,5.823,0,0,0-1.125-1.86A5.309,5.309,0,0,0,69.795-13.2a4.65,4.65,0,0,0-2.025-.45,4.525,4.525,0,0,0-2.025.465,5.334,5.334,0,0,0-1.65,1.26,5.972,5.972,0,0,0-1.11,1.86A6.4,6.4,0,0,0,62.58-7.77Z" transform="translate(79.499 67.274)"/>
  </g>
</svg>
