<svg id="listeo_qr" xmlns="http://www.w3.org/2000/svg" width="144.262" height="138.989" viewBox="0 0 144.262 138.989">
  <g id="QR" transform="translate(17.866 13.6)">
    <path id="Path_60" data-name="Path 60" d="M355.021,307.648H258.058a7.415,7.415,0,0,1-7.415-7.415V203.27a7.415,7.415,0,0,1,7.415-7.415h96.963a7.415,7.415,0,0,1,7.415,7.415v96.963A7.415,7.415,0,0,1,355.021,307.648Z" transform="translate(-250.643 -195.855)" fill="#fff" stroke="#ccc" stroke-width="1"/>
    <path id="Path_61" data-name="Path 61" d="M334.63,272.276h3.708v-3.72h3.7V257.371H334.6v-3.718H330.88V249.9h-3.769v11.139H304.659v-3.663h-3.665v7.452h3.633v3.712h-3.681V272.3l7.449.027v3.692h3.766v3.755h7.425v3.722h7.526v3.752h3.754v-7.4h7.462v3.661h7.508v11.177h3.628V276.029H334.629C334.63,274.765,334.63,273.569,334.63,272.276Zm-18.8.024h-7.407v-7.4h7.407Zm14.948,3.693H319.64V264.9h11.135Zm7.528,7.514h.025v.025Zm3.734-26.16h.025v.025h-.025Zm-37.378-33.641h.027v.024h-.027Zm22.454,26.166v.025h-.025v-.025Zm-22.427,7.5h-.025v-.025h.025Zm-22.509-56.033H256.122v26.056h26.055Zm-3.732,22.341H259.867V205.1h18.577Zm71.019-22.316H323.409v26.055h26.055Zm-3.718,22.287H327.134V205.081h18.611Zm-89.6,71.016H282.2V268.611H256.144Zm3.747-22.292H278.47V290.95H259.891Zm52.245,7.4h.025v.025h-.025Zm14.951,7.474h.024v.027h-.024Zm0,3.762v-.025h.025Zm-11.15-3.735h11.154q0,1.854,0,3.71h-3.705v3.707h-7.455v-3.675h-3.75v-3.688h-3.749v7.363H286.051v-7.417h7.393v3.663h7.531v-3.7h3.641v-3.739h-3.671v-3.7h11.189v3.759h3.8C315.934,284.844,315.934,286.039,315.934,287.274Zm-7.513-82.23H308.4v-.025Zm-14.95,22.423h-.025v-.025h.025Zm0-3.762h-3.737v-3.713H293.4v-7.5h-3.663v-3.705h7.413v-3.717H289.78v-3.73h11.112v3.705h7.5q0,1.854,0,3.71h-7.474v7.476h-3.757v11.213h-3.695Zm-3.737.025h-.027v-.025h.027Zm0-11.214-.027-.024h.027Zm18.663,26.14h.025v.025H308.4A.124.124,0,0,0,308.4,238.656ZM278.522,257.37H278.5v-.025h.027Zm7.432-3.734h11.238v-7.471H300.9V242.42h7.5v3.737h3.737v7.4h-3.707v-3.626h-7.45v3.655h3.708v3.761H323.3v-3.692h-3.607V249.87h7.393q.013-1.854.027-3.71h3.692v-3.766h3.755v-3.739H338.3v-7.395h-7.491v3.688h-3.749v3.671h-3.717v-3.705h-3.7v-3.757h-14.98V223.73H301V234.9h7.427v3.757h3.712V242.4h-3.712q-.013-1.857-.024-3.713H297.21v3.712h-3.739v-3.71l3.713-.025v-7.429h-3.739v-3.761h-3.712q0,3.726,0,7.45h3.713v3.739h-3.712q-.013-1.857-.025-3.712h-3.757v-3.69H274.786v3.661h7.392v3.786h-3.609V242.4h7.4v-3.712h3.739V242.4q-1.857.013-3.713.024v3.713h3.713q.013-1.857.025-3.713h3.712v3.737h-3.712v3.74h-7.474v3.755h-3.74v3.693h7.432C285.954,256.118,285.954,254.921,285.954,253.636Zm37.472-11.171h3.663v3.668h-3.663Zm-7.481-7.524h3.668V238.6h-3.668Zm-.121,11.191h-3.663v-3.713h3.663Zm-33.564,3.74v.025h-.025ZM297.214,279.8l3.71-.027v-7.45h-7.477V264.85l-7.447,0V276.09h3.755v7.455h3.718v3.7h3.742C297.214,284.738,297.214,282.269,297.214,279.8Zm-3.69-3.693h3.663v3.668h-3.663Zm-.054-11.258h-.025v-.025Zm0,22.425h-.024v-.027h.024Zm7.476-7.5v.025h-.025v-.025Zm-.025-7.476h.025v.025h-.025ZM315.9,208.782h-.025v-.025Zm-7.5-.005v-.024h.027v.024Zm.025,3.69v-3.69l7.449,0v3.7h3.7v7.423h-3.663v-3.614h-7.459v3.653h3.639v7.462H308.45v-3.7h-3.766v-3.757h-3.739v-3.695H304.7v-3.787C305.982,212.467,307.177,212.467,308.423,212.467Zm-7.5,3.787v-.025h.025v.025Zm-33.639,41.092v3.737h-3.744v-11.15h3.707v-7.462h3.772v14.876Zm.024,3.735v.027h-.024v-.027Zm18.665.045v3.695H267.306v-3.713h3.739V257.37h7.45v3.757Zm-14.953-3.757v-.025h.027v.025ZM286,264.822v.024h-.027v-.024Zm0-22.429v.027h-.024v-.027Zm-11.236-7.477h.025v.025ZM263.54,249.9v.029h-.025l.019-.02c-.007.008-.017.02-.017.018V249.9Zm-.024-11.25V249.9l-3.683-.035v-7.442h-3.705V231.261H263.5V234.9h-3.612v3.75Zm-3.708,11.214h.025v.025Zm29.924-14.923h-.024v-.027h.024Zm7.477,3.712v.025h-.025v-.025Zm41.09.025v-.024h.027v.024Zm.025,3.712v-3.712h11.134v3.7H345.8V246.1h-3.708v-3.708Zm-82.185,7.5h3.668v14.874h-3.668Zm3.668,0v-.025l.025.025Zm67.3,44.785v-3.668h11.135v3.668Zm0-3.668h-.025l.025-.025Zm7.454-48.591v-.025h.025v.025Zm.025,0H338.3q0,3.726,0,7.45h-3.712Zm3.713-.025h.025v.027H338.3Zm-56.066,7.479h.025l-.025.025Zm0-3.668v3.668h-7.4V246.2Zm7.474-33.688v7.452h-3.663v-7.452Zm.025,0h-.027v-.024Zm0,7.452v.024h-.027v-.024Zm52.3,33.666.023-.025v.025Zm.025,3.712v-3.712h7.4v3.712Zm-74.711-22.405h7.407v3.665h-7.407Zm7.407,0v-.025l.025.025Zm33.661-29.923v.025l-.025-.025Zm3.668,0h-3.668v-3.663h3.668Zm7.476,3.739H315.9v-3.663h3.668Zm-3.668,0v.025l-.025-.025ZM338.3,283.532v-.025l.025.025Zm-3.668,0H338.3v3.663h-3.668Zm-44.926-59.8v3.713h-3.663V223.73Zm.025,3.713v.024h-.027v-.024Zm26.187-3.675h3.658v3.619h-3.658Zm33.564,44.852v3.623h-3.639v-3.623ZM338.3,249.894v-.025h.027v.025Zm.025,3.713v-3.713h3.714v3.713Zm3.714.027v-.025h.023Zm-52.3-7.5v.024h-.027v-.024Zm3.735,18.692v.025l-.025-.025Zm3.661,0H293.47v-3.7h-3.7v-3.69h7.36C297.131,259.839,297.131,262.279,297.131,264.823Zm29.9,7.454h-3.613v-3.66h3.613ZM274.7,219.921H263.6V208.808h11.1Zm67.276-.005h-11.1v-11.1h11.1ZM263.608,276.09h11.129V287.2H263.608Z" transform="translate(-246.907 -192.117)" fill="#1b1b1b"/>
  </g>
  <g id="Scan_Lines" data-name="Scan Lines">
    <g id="Group_33" data-name="Group 33" transform="translate(6.265)">
      <g id="Group_31" data-name="Group 31">
        <path id="Path_62" data-name="Path 62" d="M247.211,212.212h-3.466V187.769h24.443v3.466H247.211Z" transform="translate(-243.745 -187.769)" fill="#181818"/>
        <path id="Path_63" data-name="Path 63" d="M333.922,212.212h-3.466V191.235H309.479v-3.466h24.443Z" transform="translate(-198.927 -187.769)" fill="#181818"/>
      </g>
      <g id="Group_32" data-name="Group 32" transform="translate(0 114.546)">
        <path id="Path_64" data-name="Path 64" d="M333.922,280.321H309.479v-3.466h20.977V255.878h3.466Z" transform="translate(-198.927 -255.878)" fill="#181818"/>
        <path id="Path_65" data-name="Path 65" d="M268.188,280.321H243.745V255.878h3.466v20.977h20.977Z" transform="translate(-243.745 -255.878)" fill="#181818"/>
      </g>
    </g>
    <rect id="Rectangle_18" data-name="Rectangle 18" width="144.262" height="2.852" transform="translate(0 68.069)" fill="#fa2100"/>
  </g>
</svg>
