<?xml version="1.0" encoding="UTF-8"?>
<svg id="Layer_1" xmlns="http://www.w3.org/2000/svg" version="1.1" viewBox="0 0 80 80">
  <!-- Generator: Adobe Illustrator 29.1.0, SVG Export Plug-In . SVG Version: 2.1.0 Build 142)  -->
  <defs>
    <style>
      .st0 {
        fill: #fbae17;
      }

      .st1 {
        fill: #ef8318;
      }

      .st2 {
        fill: #faae40;
      }

      .st3 {
        fill: #3a3a3a;
      }

      .st4 {
        fill: #fff;
      }

      .st5 {
        fill: #f9f5ef;
      }

      .st6 {
        fill: #f38020;
      }

      .st7 {
        display: none;
      }
    </style>
  </defs>
  <g>
    <path class="st1" d="M61.1,68.9c0,5.2-4.2,9.4-9.4,9.4H.9V24.6c0-4.9,4-8.9,8.9-8.9h51.3v53.1Z"/>
    <path class="st5" d="M18.3,1.7h42c4.4,0,8,3.6,8,8v52H10.3V9.7c0-4.4,3.6-8,8-8Z"/>
    <path class="st0" d="M78.1,44.2l-13.8,27.5c-2,4-6.1,6.5-10.6,6.5H.9L24.4,31.4h45.8c4.9,0,8.9,4,8.9,8.9,0,1.4-.3,2.7-.9,4Z"/>
    <path class="st4" d="M43.7,40.6c-7.8,0-14.2,6.4-14.2,14.2s6.4,14.2,14.2,14.2c7.8,0,14.2-6.4,14.2-14.2h0c0-7.8-6.4-14.2-14.2-14.2ZM30.9,54.8c0-1.8.4-3.6,1.1-5.2l6.1,16.7c-4.4-2.1-7.2-6.6-7.2-11.5ZM43.7,67.6c-1.2,0-2.4-.2-3.6-.5l3.8-11.1,3.9,10.8c0,0,0,.1,0,.2-1.4.5-2.8.7-4.2.7ZM45.4,48.8c.8,0,1.5-.1,1.5-.1.3,0,.5-.3.5-.6,0-.3-.3-.5-.6-.5,0,0-2.1.2-3.4.2s-3.4-.2-3.4-.2c-.3,0-.5.2-.6.5,0,.3.2.5.5.6,0,0,.7,0,1.3.1l2,5.5-2.8,8.4-4.7-13.8c.8,0,1.5-.1,1.5-.1.3,0,.5-.3.5-.6,0-.3-.3-.5-.6-.5,0,0-2.1.2-3.4.2s-.5,0-.8,0c3.9-5.9,11.8-7.5,17.7-3.7.6.4,1.1.8,1.6,1.3,0,0-.1,0-.2,0-1.2,0-2.2,1-2.1,2.3.1,1.1.6,2.1,1.3,3,.7,1.1,1,2.3,1.1,3.5-.1,1.4-.5,2.8-1,4.1l-1.3,4.3-4.6-13.7ZM54.9,48.7c3.3,6.1,1.2,13.7-4.8,17.2l3.9-11.3c.6-1.4.9-3,1-4.6,0-.4,0-.9,0-1.3h0Z"/>
  </g>
  <g>
    <path class="st6" d="M45.2,22.5c.7-1.7-.3-2.4-1.2-2.4h-9.4c-.3-.1-.3-.5,0-.6h9.5c1.1-.2,2.3-1.1,2.7-2.2,0,0,.6-1.3.6-1.5-.7-3.3-4-5.5-7.3-4.8-2.1.4-3.9,2-4.6,4.1-2.4-1.6-5,.6-4.4,2.9-3,.2-4.1,2.9-3.8,4.6,0,0,0,.1.2.1h17.4c0,0,.2,0,.2-.2Z"/>
    <path class="st2" d="M48.4,16.1c-.3,0-.4,0-.4,0l-.3,1.3c-.3,1,.2,1.9,1.3,2h2c.3.1.3.5,0,.6h-2.1c-2.3.3-2.9,2.5-2.9,2.5,0,.1,0,.2.1.2h7.4c.8-2.9-.8-5.7-3.6-6.5-.5-.1-.9-.2-1.4-.2"/>
  </g>
  <g class="st7">
    <path class="st3" d="M27.4,22.9c0-.2,0-.3,0-.5,0-.1.1-.3.2-.4.1-.1.2-.2.4-.3.1,0,.3,0,.5,0s.3,0,.4,0c.1,0,.2.1.3.2,0,0,.2.2.2.3s.1.2.1.4h-.6c0-.1-.1-.2-.2-.3-.1,0-.2-.1-.3-.1s-.2,0-.2,0c0,0-.1,0-.2.1,0,0,0,.1-.1.2,0,0,0,.2,0,.3s0,.2,0,.3c0,0,0,.2.1.2,0,0,.1.1.2.1,0,0,.2,0,.2,0,.1,0,.2,0,.3-.1.1,0,.2-.2.2-.3h.6c0,.1,0,.3-.1.4,0,.1-.1.2-.2.3,0,0-.2.1-.3.2-.1,0-.3,0-.4,0s-.3,0-.5,0c-.1,0-.3-.1-.4-.3-.1-.1-.2-.2-.2-.4,0-.1,0-.3,0-.5Z"/>
    <path class="st3" d="M30.4,21.8h.5v1.8h1v.5h-1.5v-2.3Z"/>
    <path class="st3" d="M32.5,22.9c0-.2,0-.3,0-.5,0-.1.1-.3.2-.4.1-.1.2-.2.4-.2s.3,0,.5,0,.3,0,.5,0,.3.1.4.2.2.2.2.4c0,.1,0,.3,0,.5s0,.3,0,.5c0,.1-.1.3-.2.4s-.2.2-.4.2c-.1,0-.3,0-.5,0s-.3,0-.5,0c-.1,0-.3-.1-.4-.2-.1-.1-.2-.2-.2-.4,0-.1,0-.3,0-.5ZM33.1,22.9c0,0,0,.2,0,.3,0,0,0,.2.1.2,0,0,.1.1.2.1,0,0,.2,0,.3,0s.2,0,.3,0c0,0,.1,0,.2-.1,0,0,.1-.1.1-.2,0,0,0-.2,0-.3s0-.2,0-.3c0,0,0-.1-.1-.2,0,0-.1-.1-.2-.1,0,0-.2,0-.3,0s-.2,0-.3,0c0,0-.1,0-.2.1,0,0-.1.1-.1.2,0,0,0,.2,0,.3Z"/>
    <path class="st3" d="M36.7,24.1c-.3,0-.6,0-.7-.2-.2-.2-.3-.4-.3-.7v-1.4h.5v1.3c0,.2,0,.3.1.4,0,0,.2.1.3.1s.3,0,.3-.1c0,0,.1-.2.1-.4v-1.3h.5v1.4c0,.3,0,.5-.3.7-.2.2-.4.2-.7.2Z"/>
    <path class="st3" d="M38.5,24.1v-2.3h.9c.2,0,.3,0,.5,0,.1,0,.3.1.4.2.1.1.2.2.2.4,0,.1,0,.3,0,.5s0,.3,0,.5c0,.1-.1.3-.2.4-.1.1-.2.2-.4.2-.1,0-.3,0-.5,0h-.9ZM39,23.6h.4c0,0,.2,0,.2,0s.1,0,.2-.1c0,0,0-.1.1-.2,0,0,0-.2,0-.3s0-.2,0-.3,0-.1-.1-.2c0,0-.1-.1-.2-.1,0,0-.2,0-.2,0h-.4v1.3Z"/>
    <path class="st3" d="M41.4,21.8h1.7v.5h-1.2v.5h1v.5h-1v.9h-.5v-2.3Z"/>
    <path class="st3" d="M43.8,21.8h.5v1.8h1v.5h-1.5v-2.3Z"/>
    <path class="st3" d="M46.7,21.8h.6l.8,2.3h-.5l-.2-.4h-.9l-.2.4h-.5l.8-2.3ZM47.3,23.2l-.3-.9-.3.9h.7Z"/>
    <path class="st3" d="M49.8,21.8c.3,0,.5,0,.7.2.2.1.2.3.2.5s0,.3-.1.4c0,.1-.2.2-.3.3l.5.9h-.6l-.4-.8h-.4v.8h-.5v-2.3h1ZM49.8,22.8c.1,0,.2,0,.3,0,0,0,0-.1,0-.2s0-.2,0-.2c0,0-.2,0-.3,0h-.5v.6h.5Z"/>
    <path class="st3" d="M51.6,21.8h1.7v.5h-1.1v.5h.9v.4h-.9v.5h1.1v.5h-1.7v-2.3Z"/>
  </g>
</svg>