<?xml version="1.0" encoding="utf-8"?>
<!-- Generator: Adobe Illustrator 26.0.1, SVG Export Plug-In . SVG Version: 6.00 Build 0)  -->
<svg version="1.1" id="Layer_1" xmlns="http://www.w3.org/2000/svg" xmlns:xlink="http://www.w3.org/1999/xlink" x="0px" y="0px"
	 width="80px" height="80px" viewBox="0 0 80 80" style="enable-background:new 0 0 80 80;" xml:space="preserve">
<style type="text/css">
	.st0{display:none;opacity:0.5;fill:#FFC63A;}
	.st1{fill:#EF8318;}
	.st2{fill:#F9F5EF;}
	.st3{fill:#FBAE17;}
	.st4{fill:#FFFFFF;}
	.st5{fill:#0061D5;}
	.st6{fill:#0D2481;}
	.st7{fill:#252525;}
	.st8{fill:#171717;}
	.st9{fill:none;}
	.st10{fill:#00AC47;}
	.st11{fill:#FFBA00;}
	.st12{fill:#00832D;}
	.st13{fill:#2684FC;}
	.st14{fill:#0066DA;}
	.st15{fill:#EA4335;}
	.st16{fill:#E01E5A;}
	.st17{fill:#36C5F0;}
	.st18{fill:#2EB67D;}
	.st19{fill:#ECB22E;}
	.st20{fill:#0364B8;}
	.st21{fill:#0078D4;}
	.st22{fill:#1490DF;}
	.st23{fill:#28A8EA;}
	.st24{fill:#252F3E;}
	.st25{fill:#FF9900;}
	.st26{fill:#4285F4;}
	.st27{fill:#34A853;}
	.st28{fill:#FBBC05;}
	.st29{fill-rule:evenodd;clip-rule:evenodd;fill:#0080FF;}
</style>
<path class="st1" d="M61.11313,68.88054c0,5.18666-4.20462,9.39128-9.39128,9.39128H0.91478V24.62797
	c0-4.89895,3.97139-8.87034,8.87034-8.87034h51.328V68.88054z"/>
<path class="st2" d="M68.2622,61.70818h-57.98V9.72818c0-4.4,3.6-8,8-8h41.98c4.4,0,8,3.6,8,8V61.70818z"/>
<path class="st3" d="M78.13731,44.20347L64.38206,71.71396c-2.00342,4.00684-6.09872,6.53788-10.5785,6.53788H0.91478
	L24.3576,31.36619h45.84583C76.79749,31.36619,81.08626,38.30557,78.13731,44.20347z"/>
<path class="st4" d="M43.6698,40.60014c-7.83463,0-14.20868,6.37384-14.20868,14.20839
	c0,7.83484,6.37405,14.20936,14.20868,14.20936c7.83454,0,14.20891-6.37452,14.20891-14.20936
	C57.87872,46.97398,51.50434,40.60014,43.6698,40.60014z M30.8951,54.80853c0-1.85216,0.39734-3.61036,1.10617-5.19902
	l6.09383,16.69605C33.83332,64.2352,30.8951,59.86497,30.8951,54.80853z M43.6698,67.58419
	c-1.25389,0-2.46425-0.18384-3.60903-0.52052l3.83332-11.13765l3.92648,10.75794c0.02585,0.06314,0.05757,0.12128,0.09148,0.17606
	C46.58424,67.32738,45.15744,67.58419,43.6698,67.58419z M45.43042,48.81903c0.76896-0.04046,1.46202-0.12143,1.46202-0.12143
	c0.68835-0.08142,0.60716-1.09312-0.0815-1.05281c0,0-2.06918,0.1624-3.40493,0.1624c-1.25522,0-3.36449-0.1624-3.36449-0.1624
	c-0.68886-0.04031-0.76962,1.01212-0.08104,1.05281c0,0,0.65163,0.08097,1.33993,0.12143l1.99018,5.45326l-2.79601,8.38445
	l-4.65178-13.83771c0.76964-0.04046,1.46196-0.12143,1.46196-0.12143c0.68792-0.08142,0.60664-1.09312-0.08172-1.05281
	c0,0-2.06882,0.1624-3.40471,0.1624c-0.23972,0-0.52222-0.00588-0.8222-0.01548c2.2843-3.46778,6.21049-5.75789,10.67366-5.75789
	c3.32571,0,6.35387,1.2716,8.62657,3.35405c-0.05506-0.00344-0.1088-0.01035-0.16549-0.01035
	c-1.25484,0-2.14523,1.09318-2.14523,2.26727c0,1.05281,0.60744,1.9435,1.25484,2.99629
	c0.48587,0.85076,1.05323,1.9438,1.05323,3.52314c0,1.09325-0.42052,2.36204-0.97203,4.12978l-1.27452,4.2573L45.43042,48.81903z
	 M54.87978,48.6799c0.99715,1.8195,1.56466,3.90755,1.56466,6.12862c0,4.713-2.55418,8.82759-6.35204,11.042l3.90182-11.28142
	c0.72874-1.82249,0.97146-3.27974,0.97146-4.57556C54.96568,49.52324,54.93469,49.08677,54.87978,48.6799z"/>
<g>
	<path class="st29" d="M39.27302,26.03057v-3.63695c3.84964,0,6.83796-3.81764,5.35961-7.86944
		c-0.54956-1.50672-1.73652-2.69381-3.24317-3.24355c-4.0518-1.46743-7.86945,1.50997-7.86945,5.35961h-3.6264
		c0-6.13549,5.93408-10.921,12.36772-8.91148c2.80761,0.88317,5.05129,3.11593,5.92354,5.92392
		C50.19477,20.09649,45.4198,26.03057,39.27302,26.03057"/>
	<path class="st29" d="M35.66808,22.40417h3.61549v-3.61549h-3.61511L35.66808,22.40417z M32.88192,25.19032h2.78578v-2.78578
		h-2.78578V25.19032z M30.55279,22.40454h2.32914v-2.32951h-2.32914V22.40454z"/>
</g>
</svg>
