<svg id="Layer_1" data-name="Layer 1" xmlns="http://www.w3.org/2000/svg" viewBox="0 0 80 80">
  <defs>
    <style>
      .cls-1 {
        fill: #ef8318;
      }

      .cls-2 {
        fill: #f9f5ef;
      }

      .cls-3 {
        fill: #fbae17;
      }

      .cls-4 {
        fill: #fff;
      }

      .cls-5 {
        fill: #ea4335;
      }

      .cls-6 {
        fill: #4285f4;
      }

      .cls-7 {
        fill: #34a853;
      }

      .cls-8 {
        fill: #fbbc05;
      }
    </style>
  </defs>
  <g>
    <path class="cls-1" d="M61.14351,68.88054a9.39128,9.39128,0,0,1-9.39128,9.39128H.94517V24.628a8.87034,8.87034,0,0,1,8.87034-8.87035h51.328Z"/>
    <path class="cls-2" d="M18.31259,1.72818h41.98a8,8,0,0,1,8,8v51.98a0,0,0,0,1,0,0h-57.98a0,0,0,0,1,0,0v-51.98A8,8,0,0,1,18.31259,1.72818Z"/>
    <path class="cls-3" d="M78.1677,44.20347,64.41245,71.714A11.82713,11.82713,0,0,1,53.834,78.25184H.94517L24.388,31.36619H70.23382A8.87035,8.87035,0,0,1,78.1677,44.20347Z"/>
    <path class="cls-4" d="M43.70019,40.60014A14.20888,14.20888,0,1,0,57.9091,54.80852,14.22465,14.22465,0,0,0,43.70019,40.60014ZM30.92549,54.80852a12.72554,12.72554,0,0,1,1.10616-5.199l6.09384,16.69606A12.77563,12.77563,0,0,1,30.92549,54.80852Zm12.7747,12.77567a12.76963,12.76963,0,0,1-3.609-.52052L43.92448,55.926,47.851,66.684a1.19351,1.19351,0,0,0,.09148.17606A12.75047,12.75047,0,0,1,43.70019,67.58419ZM45.46081,48.819c.769-.04047,1.462-.12143,1.462-.12143a.52807.52807,0,0,0-.08149-1.05281s-2.06919.1624-3.40494.1624c-1.25522,0-3.36448-.1624-3.36448-.1624a.52807.52807,0,0,0-.081,1.05281s.65164.081,1.33993.12143L43.321,54.27229l-2.796,8.38444L35.8732,48.819c.76963-.04047,1.462-.12143,1.462-.12143a.52808.52808,0,0,0-.08172-1.05281s-2.06882.1624-3.40471.1624c-.23971,0-.52222-.00588-.8222-.01549a12.77152,12.77152,0,0,1,19.30023-2.40383c-.05506-.00344-.1088-.01034-.16549-.01034A2.212,2.212,0,0,0,50.016,47.64479a5.98352,5.98352,0,0,0,1.25484,2.99629,6.72822,6.72822,0,0,1,1.05323,3.52314,15.46788,15.46788,0,0,1-.972,4.12978l-1.27453,4.2573Zm9.44935-.13913a12.77694,12.77694,0,0,1-4.78738,17.17062L54.0246,54.56911a12.06315,12.06315,0,0,0,.97146-4.57556A9.80056,9.80056,0,0,0,54.91016,48.6799Z"/>
    <g>
      <path class="cls-5" d="M43.30726,12.45045l.74732.01276,2.03053-2.03053.09842-.86033a9.1205,9.1205,0,0,0-14.86916,4.43107,1.09915,1.09915,0,0,1,.69556-.03864l4.05741-.66712s.20852-.34523.31424-.32809a5.05422,5.05422,0,0,1,6.92568-.52313Z"/>
      <path class="cls-6" d="M48.9366,14.01144a9.1403,9.1403,0,0,0-2.75416-4.43909l-2.87519,2.87518a5.0598,5.0598,0,0,1,1.89091,3.94441v.50745a2.53506,2.53506,0,1,1,0,5.07012H40.128l-.50745.51037v3.04251l.50745.5049h5.07012A6.58773,6.58773,0,0,0,48.9366,14.01181Z"/>
      <path class="cls-7" d="M35.05281,26.03057H40.12V21.96951H35.05281a2.51179,2.51179,0,0,1-1.04334-.22675l-.73164.2242L31.2473,23.99749l-.1779.68535a6.56182,6.56182,0,0,0,3.983,1.34481Z"/>
      <path class="cls-8" d="M35.05281,12.84489a6.58925,6.58925,0,0,0-3.9805,11.84305L34.012,21.74823A2.53468,2.53468,0,1,1,37.364,18.397l2.93971-2.93971a6.58228,6.58228,0,0,0-5.25058-2.61235Z"/>
    </g>
  </g>
</svg>
