<svg xmlns="http://www.w3.org/2000/svg" width="42.019" height="39.841" viewBox="0 0 42.019 39.841"><g id="calendar" transform="translate(0 -12)"><path id="Path_447" data-name="Path 447" d="M38.434,14.9h-1.5v-.771a2.133,2.133,0,1,0-4.265,0V14.9H9.348v-.771a2.133,2.133,0,1,0-4.265,0V14.9h-1.5A3.589,3.589,0,0,0,0,18.489V48.256a3.589,3.589,0,0,0,3.585,3.585h34.85a3.589,3.589,0,0,0,3.585-3.585V18.489A3.589,3.589,0,0,0,38.434,14.9Zm-4.4-.771a.771.771,0,0,1,1.543,0V15.58s0,0,0,.005,0,0,0,.005v1.447a.771.771,0,1,1-1.543,0ZM7.215,13.361a.772.772,0,0,1,.771.771v2.9a.771.771,0,1,1-1.543,0V15.59s0,0,0-.005,0,0,0-.005V14.133A.772.772,0,0,1,7.215,13.361ZM38.434,50.48H3.585a2.226,2.226,0,0,1-2.223-2.223V22.074H6.489a.681.681,0,0,0,0-1.361H1.361V18.489a2.226,2.226,0,0,1,2.223-2.223h1.5v.771a2.133,2.133,0,0,0,4.265,0v-.771H32.671v.771a2.133,2.133,0,0,0,4.265,0v-.771h1.5a2.226,2.226,0,0,1,2.223,2.223v2.223H36.983a.681.681,0,1,0,0,1.361h3.675V48.256A2.226,2.226,0,0,1,38.434,50.48Z" transform="translate(0 0)" fill="#f82246"></path><path id="Path_448" data-name="Path 448" d="M354.133,108h-1.452a.681.681,0,0,0,0,1.361h1.452a.681.681,0,1,0,0-1.361Z" transform="translate(-320.056 -87.288)" fill="#f82246"></path><path id="Path_449" data-name="Path 449" d="M117.688,108.681a.681.681,0,0,0-.681-.681H96.678a.681.681,0,0,0,0,1.361h20.329A.681.681,0,0,0,117.688,108.681Z" transform="translate(-87.285 -87.288)" fill="#f82246"></path><path id="Path_450" data-name="Path 450" d="M131.793,170.513h-5.107a.516.516,0,0,1-.492-.358l-1.578-4.857h0a1.879,1.879,0,0,0-3.574,0l-1.578,4.857a.516.516,0,0,1-.492.358h-5.107a1.879,1.879,0,0,0-1.1,3.4l4.131,3a.516.516,0,0,1,.188.579l-1.578,4.857a1.879,1.879,0,0,0,2.891,2.1l4.131-3a.516.516,0,0,1,.609,0l4.131,3a1.851,1.851,0,0,0,2.209,0,1.851,1.851,0,0,0,.683-2.1l-1.578-4.857a.516.516,0,0,1,.188-.579l4.131-3a1.879,1.879,0,0,0-1.1-3.4Zm.3,2.3-4.131,3a1.874,1.874,0,0,0-.683,2.1l1.578,4.857a.518.518,0,0,1-.8.579l-4.131-3a1.874,1.874,0,0,0-2.209,0l-4.131,3a.518.518,0,0,1-.8-.579l1.578-4.857a1.874,1.874,0,0,0-.683-2.1l-4.131-3a.518.518,0,0,1,.3-.936h5.107a1.874,1.874,0,0,0,1.787-1.3l1.578-4.857a.518.518,0,0,1,.985,0l1.578,4.857a1.874,1.874,0,0,0,1.787,1.3h5.107a.517.517,0,0,1,.3.936Z" transform="translate(-101.82 -138.205)" fill="#f82246"></path><path id="Path_451" data-name="Path 451" d="M249.4,267.88a4.772,4.772,0,0,0-1.657,5.1.681.681,0,1,0,1.308-.378,3.411,3.411,0,0,1,1.185-3.647.681.681,0,0,0-.836-1.075Z" transform="translate(-225.083 -232.527)" fill="#f82246"></path><path id="Path_452" data-name="Path 452" d="M225.319,238.4a.681.681,0,1,0-1.28.463,4.772,4.772,0,0,0,.868,1.49.681.681,0,0,0,1.033-.886A3.413,3.413,0,0,1,225.319,238.4Z" transform="translate(-203.669 -205.443)" fill="#f82246"></path></g></svg>