<svg xmlns="http://www.w3.org/2000/svg" width="37.529" height="37.545" viewBox="0 0 37.529 37.545"><g id="map" transform="translate(-0.106)"><g id="Group_53" data-name="Group 53" transform="translate(0.106 0)"><g id="Group_52" data-name="Group 52" transform="translate(0 0)"><path id="Path_453" data-name="Path 453" d="M36.832,26.085V7.985a.824.824,0,0,0-.232-.567L29.415.233A.8.8,0,0,0,28.393.145L18.469,7.019,8.545.145A.809.809,0,0,0,7.523.233L.338,7.418a.79.79,0,0,0-.232.567V35.929a.8.8,0,0,0,.8.8.824.824,0,0,0,.567-.232l6.715-6.715,9.828,6.81a.787.787,0,0,0,.814.056L23.323,34.4a7.972,7.972,0,0,0,13.509-8.319ZM7.292,28.416,1.7,34V8.32L7.292,2.732Zm10.379,6L8.888,28.336V2.325l8.782,6.084ZM29.647,2.732l5.589,5.589V23.849a7.964,7.964,0,0,0-5.589-2.291Zm-10.379,31.9V8.408L28.05,2.325V21.718A7.961,7.961,0,0,0,21.822,31.1a8.229,8.229,0,0,0,.655,1.932Zm10.379,1.293a6.384,6.384,0,1,1,6.379-6.379A6.394,6.394,0,0,1,29.647,35.929Z" transform="translate(-0.106 0)" fill="#f82246"></path><path id="Path_454" data-name="Path 454" d="M348.591,344.639H346.22v-2.371a.817.817,0,0,0-.679-.814.8.8,0,0,0-.918.79v2.4h-2.371a.817.817,0,0,0-.814.679.8.8,0,0,0,.79.918h2.4v2.371a.817.817,0,0,0,.679.814.8.8,0,0,0,.918-.79v-2.4h2.4a.8.8,0,0,0,.79-.918A.817.817,0,0,0,348.591,344.639Z" transform="translate(-315.881 -315.888)" fill="#f82246"></path></g></g></g></svg>