<svg xmlns="http://www.w3.org/2000/svg" xmlns:xlink="http://www.w3.org/1999/xlink" width="2189" height="862" viewBox="0 0 2189 862"><defs><clipPath id="clip-path"><rect id="Rectangle_36" data-name="Rectangle 36" width="2189" height="862" transform="translate(0 4212)" fill="#fff"></rect></clipPath></defs><g id="Mask_Group_13" data-name="Mask Group 13" transform="translate(0 -4212)" clip-path="url(#clip-path)"><path id="Path_1" data-name="Path 1" d="M697.524,4.414C783.2,23.654,868.866,61.172,926.406,117.929s86.949,130.831,74.163,200.095S931.52,450.779,861.194,491.183c-69.048,41.366-152.161,59.644-225.045,94.275-72.884,33.67-135.539,84.655-209.7,100.047s-161.112-4.81-251.9-31.746c-90.785-25.974-185.406-59.644-207.144-116.4C-53.052,481.563.652,402.68,22.389,333.416S33.9,203.547,47.962,139.093C62.028,73.678,99.109,2.49,168.157-23.484c69.048-26.936,170.063-8.658,263.405.962C524.9-13.864,610.575-13.864,697.524,4.414Z" transform="translate(1562.575 4259.063)" fill="#f9f9f9"></path><path id="Path_2" data-name="Path 2" d="M697.524,4.414C783.2,23.654,868.866,61.172,926.406,117.929s86.949,130.831,74.163,200.095S931.52,450.779,861.194,491.183c-69.048,41.366-152.161,59.644-225.045,94.275-72.884,33.67-135.539,84.655-209.7,100.047s-161.112-4.81-251.9-31.746c-90.785-25.974-185.406-59.644-207.144-116.4C-53.052,481.563.652,402.68,22.389,333.416S33.9,203.547,47.962,139.093C62.028,73.678,99.109,2.49,168.157-23.484c69.048-26.936,170.063-8.658,263.405.962C524.9-13.864,610.575-13.864,697.524,4.414Z" transform="translate(-327.184 4308.063)" fill="#f9f9f9"></path></g></svg>